HIERARCHY
ROOT Hips
{
	OFFSET -318.825958 -575.233643 89.265579
	CHANNELS 6 Xposition Yposition Zposition Zrotation Yrotation Xrotation
	JOINT Spine
	{
		OFFSET 0.000000 2.080078 8.814247
		CHANNELS 6 Xposition Yposition Zposition Zrotation Yrotation Xrotation
		JOINT Spine1
		{
			OFFSET 0.000000 0.000000 8.844139
			CHANNELS 6 Xposition Yposition Zposition Zrotation Yrotation Xrotation
			JOINT Spine2
			{
				OFFSET 0.000000 0.000000 11.682266
				CHANNELS 6 Xposition Yposition Zposition Zrotation Yrotation Xrotation
				JOINT Spine3
				{
					OFFSET 0.000000 0.000000 11.746704
					CHANNELS 6 Xposition Yposition Zposition Zrotation Yrotation Xrotation
					JOINT Neck
					{
						OFFSET 0.000000 0.000000 17.658264
						CHANNELS 6 Xposition Yposition Zposition Zrotation Yrotation Xrotation
						JOINT Neck1
						{
							OFFSET 0.000000 0.000000 5.101517
							CHANNELS 6 Xposition Yposition Zposition Zrotation Yrotation Xrotation
							JOINT Head
							{
								OFFSET 0.000000 0.000000 5.101517
								CHANNELS 6 Xposition Yposition Zposition Zrotation Yrotation Xrotation
								JOINT HeadEnd
								{
									OFFSET 0.000000 0.000000 11.655090
									CHANNELS 6 Xposition Yposition Zposition Zrotation Yrotation Xrotation
									End Site
									{
										OFFSET 0.000000 0.000000 0.100006
									}
								}
							}
						}
					}
					JOINT RightShoulder
					{
						OFFSET -2.625397 0.000000 11.175217
						CHANNELS 6 Xposition Yposition Zposition Zrotation Yrotation Xrotation
						JOINT RightArm
						{
							OFFSET 0.000000 0.000000 10.434723
							CHANNELS 6 Xposition Yposition Zposition Zrotation Yrotation Xrotation
							JOINT RightForeArm
							{
								OFFSET 0.000000 0.000000 29.628418
								CHANNELS 6 Xposition Yposition Zposition Zrotation Yrotation Xrotation
								JOINT RightHand
								{
									OFFSET 0.000000 0.000000 22.857605
									CHANNELS 6 Xposition Yposition Zposition Zrotation Yrotation Xrotation
									JOINT RightHandThumb1
									{
										OFFSET -2.867310 -2.944275 3.959564
										CHANNELS 6 Xposition Yposition Zposition Zrotation Yrotation Xrotation
										JOINT RightHandThumb2
										{
											OFFSET 0.000000 0.000000 3.350403
											CHANNELS 6 Xposition Yposition Zposition Zrotation Yrotation Xrotation
											JOINT RightHandThumb3
											{
												OFFSET 0.000000 0.000000 3.756516
												CHANNELS 6 Xposition Yposition Zposition Zrotation Yrotation Xrotation
												JOINT RightHandThumb4
												{
													OFFSET 0.000000 0.000000 3.147339
													CHANNELS 6 Xposition Yposition Zposition Zrotation Yrotation Xrotation
													End Site
													{
														OFFSET 0.000000 0.000000 0.100006
													}
												}
											}
										}
									}
									JOINT RightHandIndex1
									{
										OFFSET -0.086761 -2.345276 10.030899
										CHANNELS 6 Xposition Yposition Zposition Zrotation Yrotation Xrotation
										JOINT RightHandIndex2
										{
											OFFSET 0.000000 0.000000 4.061096
											CHANNELS 6 Xposition Yposition Zposition Zrotation Yrotation Xrotation
											JOINT RightHandIndex3
											{
												OFFSET 0.000000 0.000000 3.248871
												CHANNELS 6 Xposition Yposition Zposition Zrotation Yrotation Xrotation
												JOINT RightHandIndex4
												{
													OFFSET 0.000000 0.000000 2.639709
													CHANNELS 6 Xposition Yposition Zposition Zrotation Yrotation Xrotation
													End Site
													{
														OFFSET 0.000000 0.000000 0.100006
													}
												}
											}
										}
									}
									JOINT RightHandMiddle1
									{
										OFFSET 0.104095 -0.006775 9.502945
										CHANNELS 6 Xposition Yposition Zposition Zrotation Yrotation Xrotation
										JOINT RightHandMiddle2
										{
											OFFSET 0.000000 0.000000 4.568726
											CHANNELS 6 Xposition Yposition Zposition Zrotation Yrotation Xrotation
											JOINT RightHandMiddle3
											{
												OFFSET 0.000000 0.000000 3.654984
												CHANNELS 6 Xposition Yposition Zposition Zrotation Yrotation Xrotation
												JOINT RightHandMiddle4
												{
													OFFSET 0.000000 0.000000 2.741241
													CHANNELS 6 Xposition Yposition Zposition Zrotation Yrotation Xrotation
													End Site
													{
														OFFSET 0.000000 0.000000 0.100006
													}
												}
											}
										}
									}
									JOINT RightHandRing1
									{
										OFFSET 0.086761 2.267456 8.921707
										CHANNELS 6 Xposition Yposition Zposition Zrotation Yrotation Xrotation
										JOINT RightHandRing2
										{
											OFFSET 0.000000 0.000000 4.061096
											CHANNELS 6 Xposition Yposition Zposition Zrotation Yrotation Xrotation
											JOINT RightHandRing3
											{
												OFFSET 0.000000 0.000000 3.654984
												CHANNELS 6 Xposition Yposition Zposition Zrotation Yrotation Xrotation
												JOINT RightHandRing4
												{
													OFFSET 0.000000 0.000000 2.741241
													CHANNELS 6 Xposition Yposition Zposition Zrotation Yrotation Xrotation
													End Site
													{
														OFFSET 0.000000 0.000000 0.100006
													}
												}
											}
										}
									}
									JOINT RightHandPinky1
									{
										OFFSET -0.173492 4.467224 7.976990
										CHANNELS 6 Xposition Yposition Zposition Zrotation Yrotation Xrotation
										JOINT RightHandPinky2
										{
											OFFSET 0.000000 0.000000 3.350403
											CHANNELS 6 Xposition Yposition Zposition Zrotation Yrotation Xrotation
											JOINT RightHandPinky3
											{
												OFFSET 0.000000 0.000000 2.842758
												CHANNELS 6 Xposition Yposition Zposition Zrotation Yrotation Xrotation
												JOINT RightHandPinky4
												{
													OFFSET 0.000000 0.000000 2.639709
													CHANNELS 6 Xposition Yposition Zposition Zrotation Yrotation Xrotation
													End Site
													{
														OFFSET 0.000000 0.000000 0.100006
													}
												}
											}
										}
									}
									JOINT RightForeArmEnd
									{
										OFFSET 0.000000 0.000000 0.000000
										CHANNELS 6 Xposition Yposition Zposition Zrotation Yrotation Xrotation
										End Site
										{
											OFFSET 0.000000 0.000000 0.100006
										}
									}
								}
								JOINT RightArmEnd
								{
									OFFSET 0.000000 0.000000 0.000000
									CHANNELS 6 Xposition Yposition Zposition Zrotation Yrotation Xrotation
									End Site
									{
										OFFSET 0.000000 0.000000 0.100006
									}
								}
							}
						}
					}
					JOINT LeftShoulder
					{
						OFFSET 2.625397 0.000000 11.175217
						CHANNELS 6 Xposition Yposition Zposition Zrotation Yrotation Xrotation
						JOINT LeftArm
						{
							OFFSET 0.000000 0.000000 10.813629
							CHANNELS 6 Xposition Yposition Zposition Zrotation Yrotation Xrotation
							JOINT LeftForeArm
							{
								OFFSET 0.000000 0.000000 28.724777
								CHANNELS 6 Xposition Yposition Zposition Zrotation Yrotation Xrotation
								JOINT LeftHand
								{
									OFFSET 0.644379 0.328857 25.716171
									CHANNELS 6 Xposition Yposition Zposition Zrotation Yrotation Xrotation
									JOINT LeftHandThumb1
									{
										OFFSET 2.867310 -2.944275 3.959564
										CHANNELS 6 Xposition Yposition Zposition Zrotation Yrotation Xrotation
										JOINT LeftHandThumb2
										{
											OFFSET 0.000000 0.000000 3.350403
											CHANNELS 6 Xposition Yposition Zposition Zrotation Yrotation Xrotation
											JOINT LeftHandThumb3
											{
												OFFSET 0.000000 0.000000 3.756516
												CHANNELS 6 Xposition Yposition Zposition Zrotation Yrotation Xrotation
												JOINT LeftHandThumb4
												{
													OFFSET 0.000000 0.000000 3.100006
													CHANNELS 6 Xposition Yposition Zposition Zrotation Yrotation Xrotation
													End Site
													{
														OFFSET 0.000000 0.000000 0.100006
													}
												}
											}
										}
									}
									JOINT LeftHandIndex1
									{
										OFFSET 0.086761 -2.345276 10.030899
										CHANNELS 6 Xposition Yposition Zposition Zrotation Yrotation Xrotation
										JOINT LeftHandIndex2
										{
											OFFSET 0.000000 0.000000 4.061096
											CHANNELS 6 Xposition Yposition Zposition Zrotation Yrotation Xrotation
											JOINT LeftHandIndex3
											{
												OFFSET 0.000000 0.000000 3.248871
												CHANNELS 6 Xposition Yposition Zposition Zrotation Yrotation Xrotation
												JOINT LeftHandIndex4
												{
													OFFSET 0.000000 0.000000 2.639709
													CHANNELS 6 Xposition Yposition Zposition Zrotation Yrotation Xrotation
													End Site
													{
														OFFSET 0.000000 0.000000 0.100006
													}
												}
											}
										}
									}
									JOINT LeftHandMiddle1
									{
										OFFSET -0.104095 -0.006775 9.502945
										CHANNELS 6 Xposition Yposition Zposition Zrotation Yrotation Xrotation
										JOINT LeftHandMiddle2
										{
											OFFSET 0.000000 0.000000 4.568726
											CHANNELS 6 Xposition Yposition Zposition Zrotation Yrotation Xrotation
											JOINT LeftHandMiddle3
											{
												OFFSET 0.000000 0.000000 3.654984
												CHANNELS 6 Xposition Yposition Zposition Zrotation Yrotation Xrotation
												JOINT LeftHandMiddle4
												{
													OFFSET 0.000000 0.000000 2.741241
													CHANNELS 6 Xposition Yposition Zposition Zrotation Yrotation Xrotation
													End Site
													{
														OFFSET 0.000000 0.000000 0.100006
													}
												}
											}
										}
									}
									JOINT LeftHandRing1
									{
										OFFSET -0.086761 2.267456 8.921707
										CHANNELS 6 Xposition Yposition Zposition Zrotation Yrotation Xrotation
										JOINT LeftHandRing2
										{
											OFFSET 0.000000 0.000000 4.061096
											CHANNELS 6 Xposition Yposition Zposition Zrotation Yrotation Xrotation
											JOINT LeftHandRing3
											{
												OFFSET 0.000000 0.000000 3.654984
												CHANNELS 6 Xposition Yposition Zposition Zrotation Yrotation Xrotation
												JOINT LeftHandRing4
												{
													OFFSET 0.000000 0.000000 2.741241
													CHANNELS 6 Xposition Yposition Zposition Zrotation Yrotation Xrotation
													End Site
													{
														OFFSET 0.000000 0.000000 0.100006
													}
												}
											}
										}
									}
									JOINT LeftHandPinky1
									{
										OFFSET 0.173492 4.467224 7.976990
										CHANNELS 6 Xposition Yposition Zposition Zrotation Yrotation Xrotation
										JOINT LeftHandPinky2
										{
											OFFSET 0.000000 0.000000 3.350403
											CHANNELS 6 Xposition Yposition Zposition Zrotation Yrotation Xrotation
											JOINT LeftHandPinky3
											{
												OFFSET 0.000000 0.000000 2.842758
												CHANNELS 6 Xposition Yposition Zposition Zrotation Yrotation Xrotation
												JOINT LeftHandPinky4
												{
													OFFSET 0.000000 0.000000 2.639709
													CHANNELS 6 Xposition Yposition Zposition Zrotation Yrotation Xrotation
													End Site
													{
														OFFSET 0.000000 0.000000 0.100006
													}
												}
											}
										}
									}
									JOINT LeftForeArmEnd
									{
										OFFSET 0.000000 0.000000 0.000000
										CHANNELS 6 Xposition Yposition Zposition Zrotation Yrotation Xrotation
										End Site
										{
											OFFSET 0.000000 0.000000 0.100006
										}
									}
								}
								JOINT LeftArmEnd
								{
									OFFSET 0.000000 0.000000 0.000000
									CHANNELS 6 Xposition Yposition Zposition Zrotation Yrotation Xrotation
									End Site
									{
										OFFSET 0.000000 0.000000 0.100006
									}
								}
							}
						}
					}
				}
			}
		}
	}
	JOINT RightUpLeg
	{
		OFFSET -11.289948 0.000000 0.000000
		CHANNELS 6 Xposition Yposition Zposition Zrotation Yrotation Xrotation
		JOINT RightLeg
		{
			OFFSET 0.000000 0.000000 -38.200329
			CHANNELS 6 Xposition Yposition Zposition Zrotation Yrotation Xrotation
			JOINT RightFoot
			{
				OFFSET 0.000000 0.000000 -39.900856
				CHANNELS 6 Xposition Yposition Zposition Zrotation Yrotation Xrotation
				JOINT RightToeBase
				{
					OFFSET 0.000000 -15.261658 0.000001
					CHANNELS 6 Xposition Yposition Zposition Zrotation Yrotation Xrotation
					JOINT RightToeBaseEnd
					{
						OFFSET 0.000000 -7.370728 0.000000
						CHANNELS 6 Xposition Yposition Zposition Zrotation Yrotation Xrotation
						End Site
						{
							OFFSET 0.000000 0.000000 0.100000
						}
					}
				}
				JOINT RightLegEnd
				{
					OFFSET 0.000000 0.000000 0.000000
					CHANNELS 6 Xposition Yposition Zposition Zrotation Yrotation Xrotation
					End Site
					{
						OFFSET 0.000000 0.000000 0.100000
					}
				}
			}
			JOINT RightUpLegEnd
			{
				OFFSET 0.000000 0.000000 0.000000
				CHANNELS 6 Xposition Yposition Zposition Zrotation Yrotation Xrotation
				End Site
				{
					OFFSET 0.000000 0.000000 0.099998
				}
			}
		}
	}
	JOINT LeftUpLeg
	{
		OFFSET 11.315674 0.000000 0.000000
		CHANNELS 6 Xposition Yposition Zposition Zrotation Yrotation Xrotation
		JOINT LeftLeg
		{
			OFFSET 0.000000 0.000000 -38.200329
			CHANNELS 6 Xposition Yposition Zposition Zrotation Yrotation Xrotation
			JOINT LeftFoot
			{
				OFFSET 0.000000 0.000000 -39.900856
				CHANNELS 6 Xposition Yposition Zposition Zrotation Yrotation Xrotation
				JOINT LeftToeBase
				{
					OFFSET 0.000000 -15.261658 0.000001
					CHANNELS 6 Xposition Yposition Zposition Zrotation Yrotation Xrotation
					JOINT LeftToeBaseEnd
					{
						OFFSET 0.000000 -7.539978 0.000000
						CHANNELS 6 Xposition Yposition Zposition Zrotation Yrotation Xrotation
						End Site
						{
							OFFSET 0.000000 0.000000 0.100000
						}
					}
				}
				JOINT LeftLegEnd
				{
					OFFSET 0.000000 0.000000 0.000000
					CHANNELS 6 Xposition Yposition Zposition Zrotation Yrotation Xrotation
					End Site
					{
						OFFSET 0.000000 0.000000 0.100000
					}
				}
			}
			JOINT LeftUpLegEnd
			{
				OFFSET 0.000000 0.000000 0.000000
				CHANNELS 6 Xposition Yposition Zposition Zrotation Yrotation Xrotation
				End Site
				{
					OFFSET 0.000000 0.000000 0.099998
				}
			}
		}
	}
}
MOTION
Frames: 2
Frame Time: 0.016667
0.121857 1.647095 88.808830 -2.014339 0.239010 -9.818260 0.000008 2.080091 8.814265 0.028511 -0.216700 6.942483 0.000008 -0.000016 8.844146 0.067637 0.661505 1.892259 0.000004 0.000004 11.682286 -1.615908 0.203304 5.475028 -0.000022 0.000019 11.746708 -0.523927 0.455405 2.855187 -0.000013 0.000029 17.658264 -0.831952 -3.022664 1.108942 0.000003 0.000016 5.101506 0.436029 -0.237764 -4.946826 0.000013 0.000024 5.101549 -0.847940 0.464016 -17.716158 -0.000003 -0.000001 11.655066 -0.000000 -0.000000 -0.000001 -2.625406 -0.000038 11.175175 9.281326 -90.994738 1.804967 0.000008 -0.000005 10.434742 -62.156374 -47.115492 61.041442 0.000006 -0.000031 29.628448 12.971957 0.184913 22.020615 -0.000044 -0.000002 22.857582 12.589709 -4.601764 -9.059102 -2.867325 -2.944305 3.959579 31.644594 -17.093768 51.773251 0.000015 0.000031 3.350430 -12.293576 8.271418 -22.244270 -0.000011 0.000000 3.756535 -8.189156 6.261810 -15.233084 -0.000002 -0.000057 3.147361 -0.000001 0.000001 -0.000000 -0.086788 -2.345279 10.030856 -10.860809 -12.069545 1.207009 -0.000006 0.000002 4.061076 0.378243 -8.527872 1.198182 -0.000007 0.000007 3.248889 -0.157810 -8.527624 1.210295 -0.000015 0.000010 2.639676 -0.000001 -0.000001 -0.000000 0.104088 -0.006752 9.502904 -5.472824 -10.823471 -1.382325 0.000010 -0.000090 4.568781 0.429783 -7.609724 0.420891 -0.000030 -0.000069 3.654994 -0.064156 -7.609700 0.416097 -0.000021 0.000000 2.741261 -0.000000 -0.000001 0.000000 0.086758 2.267480 8.921694 2.590590 -10.887717 -2.948992 -0.000002 -0.000006 4.061100 -0.929066 -7.865387 -0.500000 0.000008 0.000015 3.654997 0.091113 -7.865308 -0.511921 0.000007 -0.000015 2.741243 0.000002 -0.000001 0.000001 -0.173485 4.467224 7.976986 11.248942 -9.853430 -5.402572 0.000002 -0.000029 3.350423 -1.884644 -7.544963 -1.478073 0.000005 0.000003 2.842769 0.097874 -7.544639 -1.477211 0.000003 -0.000009 2.639705 0.000001 0.000002 0.000000 0.000017 -0.000008 -0.000016 0.000001 0.000001 0.000000 0.000011 0.000010 -0.000013 -0.000001 -0.000000 -0.000000 2.625382 -0.000022 11.175200 -6.506368 88.267737 0.310726 0.000008 -0.000021 10.813633 58.311579 58.368119 48.664377 0.000035 -0.000008 28.724821 -6.692038 0.631575 39.682979 0.644409 0.328850 25.716185 -24.413683 -0.142185 -15.386565 2.867340 -2.944260 3.959541 -31.605164 17.443267 51.236148 0.000011 0.000038 3.350384 13.067120 -8.582645 -23.535906 -0.000084 -0.000038 3.756546 8.692129 -6.543799 -16.105764 0.000009 -0.000001 3.100013 0.000001 0.000001 -0.000000 0.086720 -2.345335 10.030899 -5.923314 15.641914 -3.706692 0.000001 -0.000019 4.061108 0.333819 11.274814 -1.616537 0.000003 -0.000013 3.248922 -0.165933 11.274983 -1.615458 0.000008 -0.000004 2.639707 0.000000 0.000002 -0.000000 -0.104150 -0.006812 9.502995 -0.771198 15.704359 -1.983344 -0.000030 0.000001 4.568720 0.488614 11.216408 -0.612701 -0.000030 -0.000009 3.655019 -0.018166 11.216234 -0.610053 0.000006 0.000000 2.741233 0.000000 0.000001 0.000000 -0.086777 2.267405 8.921741 8.321227 19.202489 2.011811 -0.000033 -0.000007 4.061090 -0.928369 13.700036 0.863702 0.000014 -0.000003 3.654994 0.077480 13.700147 0.856325 -0.000000 0.000002 2.741258 -0.000001 0.000005 0.000003 0.173462 4.467196 7.977016 17.888375 20.523035 6.578598 0.000002 -0.000012 3.350397 -1.582067 14.974613 3.006829 -0.000024 0.000007 2.842781 0.394092 14.974245 2.995754 -0.000013 -0.000010 2.639705 0.000002 0.000002 0.000003 0.000003 0.000001 0.000000 0.000000 -0.000001 0.000001 0.000028 0.000008 0.000010 -0.000001 -0.000002 -0.000000 -11.289953 -0.000013 0.000004 -9.434962 0.638066 13.265038 -0.000013 0.000027 -38.200333 -0.559083 0.048332 4.606160 0.000002 -0.000009 -39.900860 -7.010198 2.711864 18.823195 -0.000010 -15.261652 0.000005 0.743041 0.753437 -19.107439 -0.000006 -7.370733 0.000001 0.000001 0.000000 0.000001 -0.000002 0.000010 0.000001 -0.000002 -0.000000 0.000001 0.000007 -0.000002 -0.000002 0.000000 0.000000 -0.000000 11.315683 0.000026 0.000007 -5.995284 1.422121 8.525463 0.000010 0.000011 -38.200325 0.358733 -0.066764 10.124203 -0.000009 -0.000065 -39.900864 -0.195272 -3.813160 16.854366 -0.000003 -15.261642 -0.000004 -0.252219 -0.343442 -21.113944 0.000004 -7.539917 0.000000 -0.000000 -0.000000 0.000000 -0.000000 0.000066 0.000000 -0.000001 0.000000 -0.000000 0.000005 -0.000001 -0.000003 0.000000 -0.000000 -0.000001 
0.127411 1.639160 88.809181 -2.013401 0.240085 -9.793962 -0.000005 2.080077 8.814253 0.022728 -0.214470 6.934981 -0.000007 -0.000002 8.844139 0.068371 0.660078 1.896615 0.000012 0.000009 11.682287 -1.615360 0.203660 5.455489 -0.000017 0.000072 11.746705 -0.520446 0.452980 2.857890 0.000015 -0.000017 17.658285 -0.835734 -3.027032 1.082944 -0.000014 0.000033 5.101539 0.445354 -0.254297 -4.970043 -0.000005 0.000019 5.101545 -0.841144 0.433670 -17.787887 0.000003 -0.000002 11.655051 -0.000000 0.000000 0.000001 -2.625396 0.000001 11.175254 9.239567 -90.974288 1.838794 0.000000 -0.000010 10.434708 -62.181878 -47.074989 61.087108 0.000000 -0.000015 29.628431 12.974436 0.185089 22.013683 -0.000002 0.000017 22.857580 12.621050 -4.602604 -9.051620 -2.867336 -2.944305 3.959541 31.644591 -17.093773 51.773254 -0.000027 0.000015 3.350407 -12.293576 8.271424 -22.244237 -0.000008 0.000004 3.756542 -8.189159 6.261808 -15.233111 0.000001 -0.000058 3.147330 0.000000 -0.000001 0.000002 -0.086777 -2.345262 10.030899 -10.857860 -12.053621 1.184058 0.000003 -0.000016 4.061115 0.380547 -8.514182 1.198468 0.000002 0.000022 3.248870 -0.153334 -8.514394 1.209064 0.000001 -0.000001 2.639706 0.000000 -0.000001 -0.000000 0.104092 -0.006765 9.502914 -5.469881 -10.807263 -1.399472 -0.000025 -0.000049 4.568733 0.432722 -7.597498 0.419802 0.000002 -0.000056 3.655013 -0.061623 -7.597445 0.415280 -0.000035 0.000000 2.741213 0.000000 -0.000002 0.000000 0.086737 2.267434 8.921709 2.590470 -10.876312 -2.947320 -0.000039 -0.000030 4.061089 -0.931698 -7.857467 -0.498649 0.000010 0.000014 3.654982 0.087404 -7.857408 -0.509211 -0.000008 0.000013 2.741236 -0.000002 -0.000002 0.000001 -0.173477 4.467253 7.977005 11.250648 -9.852365 -5.380458 -0.000008 0.000022 3.350419 -1.886545 -7.541178 -1.477578 -0.000006 -0.000023 2.842783 0.098040 -7.540874 -1.476950 -0.000008 -0.000008 2.639729 0.000001 -0.000002 0.000000 -0.000002 -0.000008 -0.000007 0.000001 -0.000001 0.000000 -0.000001 -0.000010 0.000006 0.000002 -0.000000 0.000001 2.625418 -0.000025 11.175218 -6.533694 88.202536 0.299851 -0.000031 0.000012 10.813610 58.409865 58.350484 48.774278 -0.000003 0.000027 28.724787 -6.695554 0.629406 39.681736 0.644428 0.328850 25.716162 -24.391220 -0.111242 -15.372874 2.867268 -2.944305 3.959526 -31.605126 17.443273 51.236401 -0.000015 0.000008 3.350437 13.067120 -8.582631 -23.535959 -0.000023 -0.000053 3.756546 8.692140 -6.543732 -16.105938 0.000011 0.000001 3.099978 0.000001 0.000001 -0.000000 0.086735 -2.345360 10.030899 -5.924241 15.610228 -3.764537 0.000008 -0.000019 4.061100 0.333984 11.258925 -1.615332 0.000007 0.000002 3.248871 -0.165753 11.258887 -1.614290 0.000013 -0.000001 2.639713 0.000000 -0.000003 -0.000000 -0.104120 -0.006861 9.502958 -0.772514 15.680424 -2.026878 0.000008 0.000006 4.568723 0.485269 11.201205 -0.611977 -0.000036 -0.000016 3.655020 -0.021001 11.201306 -0.609238 -0.000002 -0.000003 2.741245 0.000000 0.000001 0.000000 -0.086777 2.267405 8.921684 8.320883 19.198905 1.975674 0.000011 0.000008 4.061108 -0.928206 13.695363 0.863385 0.000012 -0.000005 3.654967 0.077559 13.695548 0.855600 0.000013 0.000001 2.741270 0.000000 0.000002 -0.000000 0.173439 4.467151 7.976974 17.888889 20.525251 6.536573 -0.000008 -0.000025 3.350458 -1.582923 14.970439 3.006887 0.000005 0.000020 2.842794 0.393473 14.970641 2.995796 0.000000 0.000004 2.639707 -0.000001 0.000000 -0.000001 0.000003 -0.000002 -0.000034 0.000000 -0.000000 0.000000 0.000032 0.000050 -0.000028 0.000001 0.000002 -0.000002 -11.289948 0.000010 -0.000009 -9.440557 0.638923 13.244952 -0.000005 -0.000005 -38.200336 -0.559834 0.048580 4.606530 -0.000003 -0.000028 -39.900879 -7.004984 2.707480 18.823802 0.000013 -15.261683 0.000004 0.744088 0.754189 -19.106163 -0.000007 -7.370745 0.000000 0.000003 0.000000 0.000001 0.000008 -0.000012 0.000001 0.000002 -0.000000 0.000002 0.000003 0.000001 -0.000002 -0.000000 0.000000 0.000001 11.315695 -0.000023 0.000001 -5.997919 1.424310 8.501170 0.000015 0.000019 -38.200352 0.357866 -0.066634 10.131516 -0.000002 -0.000067 -39.900879 -0.191381 -3.819045 16.851337 -0.000003 -15.261690 0.000006 -0.251093 -0.342546 -21.117051 -0.000003 -7.539980 -0.000000 0.000000 0.000000 -0.000001 0.000003 0.000061 -0.000000 0.000000 -0.000000 -0.000001 -0.000005 0.000002 -0.000003 -0.000000 0.000000 0.000002 
